<svg version="1.1" id="Layer_1" xmlns="http://www.w3.org/2000/svg" xmlns:xlink="http://www.w3.org/1999/xlink" x="0px" y="0px"
	 width="100%" viewBox="0 0 384 352" enable-background="new 0 0 384 352" xml:space="preserve">
<path fill="#000000" opacity="1.000000" stroke="none" 
	d="
M190.000000,353.000000 
	C126.688004,353.000000 63.876015,353.000000 1.032010,353.000000 
	C1.032010,235.727859 1.032010,118.455719 1.032010,1.091784 
	C128.895279,1.091784 256.790649,1.091784 384.843018,1.091784 
	C384.843018,118.333168 384.843018,235.666565 384.843018,353.000000 
	C320.122467,353.000000 255.311234,353.000000 190.000000,353.000000 
M118.525620,97.350822 
	C116.193932,97.346252 113.848885,97.499527 111.533417,97.303391 
	C107.075546,96.925789 105.210693,98.642639 105.298904,103.292030 
	C105.513702,114.613205 105.452255,125.942314 105.309532,137.265808 
	C105.270210,140.385361 106.426186,142.623093 108.542526,144.737305 
	C151.545746,187.697113 194.524460,230.681473 237.479767,273.689178 
	C239.479111,275.690979 241.617569,276.723602 244.534042,276.693634 
	C256.024658,276.575623 267.519562,276.509766 279.007812,276.712494 
	C283.486298,276.791534 284.768616,274.906647 284.700775,270.722900 
	C284.522583,259.733612 284.522858,248.737488 284.709015,237.748444 
	C284.773499,233.941391 283.570862,231.083984 280.875641,228.460037 
	C273.239441,221.025894 265.749634,213.441238 258.215576,205.902451 
	C223.490265,171.155212 188.746063,136.426788 154.088074,101.612526 
	C151.049667,98.560417 147.862900,97.111740 143.498108,97.267197 
	C135.513870,97.551529 127.512352,97.350731 118.525620,97.350822 
M158.163330,255.292389 
	C141.317200,228.192993 124.471069,201.093582 107.444794,173.704407 
	C104.825188,176.257782 105.414398,178.210373 105.398178,179.958359 
	C105.317848,188.619339 105.347046,197.281403 105.347961,205.943085 
	C105.350227,227.430756 105.384964,248.918488 105.337212,270.406036 
	C105.329277,273.977692 105.862511,276.672638 110.364601,276.654907 
	C128.520477,276.583374 146.677216,276.686005 164.832596,276.565796 
	C169.196686,276.536896 170.008850,275.043091 167.877686,271.282501 
	C164.923508,266.069641 161.682800,261.019135 158.163330,255.292389 
M267.086090,175.464249 
	C272.315369,183.608231 276.910858,192.185104 282.950745,199.989349 
	C285.186920,197.834946 284.593201,195.707367 284.596558,193.802597 
	C284.648956,163.820984 284.650391,133.839249 284.637146,103.857552 
	C284.634521,97.918076 284.096832,97.398552 277.945831,97.387825 
	C261.455963,97.359070 244.965881,97.343277 228.476242,97.411446 
	C226.105225,97.421249 223.122040,96.449417 221.733292,99.297928 
	C220.516006,101.794800 222.687607,103.695312 223.861694,105.599945 
	C238.104874,128.705490 252.407867,151.774170 267.086090,175.464249 
z"/>
</svg>