<svg version="1.1" id="Layer_1" xmlns="http://www.w3.org/2000/svg" xmlns:xlink="http://www.w3.org/1999/xlink" x="0px" y="0px"
	 width="100%" viewBox="0 0 980 980" enable-background="new 0 0 980 980" xml:space="preserve">
<path fill="none" opacity="1.000000" stroke="#000000" stroke-linecap="round" stroke-linejoin="round" stroke-width="17.000000"
	d="
M537.000000,642.250000 
	C540.465454,640.516296 544.107849,639.949646 548.000061,639.954651 
	C600.666687,640.022217 653.333984,639.849060 705.999695,640.073608 
	C727.314270,640.164429 750.293701,626.449890 753.974976,598.496704 
	C754.169128,597.022278 754.000000,595.500000 754.000000,594.000000 
	C754.000000,498.500000 753.991150,403.000000 754.006287,307.500000 
	C754.010071,283.873413 734.266418,263.949646 712.506775,262.863708 
	C702.999695,262.389191 693.510559,262.004547 684.000000,262.004150 
	C548.000000,261.998108 411.999969,261.942291 276.000031,262.047211 
	C247.750198,262.069031 227.845337,282.727905 227.911530,310.000214 
	C228.140869,404.499664 228.062164,499.000061 227.956253,593.499939 
	C227.929810,617.083923 245.410065,636.211975 266.984680,639.113953 
	C270.671722,639.609924 274.305176,639.996643 278.000000,639.996948 
	C330.166656,640.001404 382.333496,640.054443 434.499664,639.894775 
	C438.592590,639.882263 442.401917,642.730347 445.920319,641.721985 
	C449.812714,640.606506 453.547668,639.996765 457.500000,639.997620 
	C480.500000,640.002441 503.500153,640.041321 526.499817,639.956360 
	C530.032776,639.943298 533.326660,640.533386 536.500000,642.000000 
"/>
<path fill="none" opacity="1.000000" stroke="#000000" stroke-linecap="round" stroke-linejoin="round" stroke-width="18.000000"
	d="
M329.500000,719.750000 
	C333.019989,720.506348 336.493591,719.471558 340.000031,719.476562 
	C368.833313,719.518127 397.667236,719.403320 426.499512,719.579712 
	C432.429291,719.615967 438.376404,720.739258 443.976715,717.953186 
	C444.811005,717.538025 445.189667,717.531494 446.023376,717.953857 
	C451.288513,720.620911 456.897461,719.648193 462.500977,719.578613 
	C479.831665,719.363586 497.170135,719.298279 514.498352,719.595947 
	C521.758789,719.720642 528.992371,720.580811 535.977478,717.940430 
	C536.809570,717.625916 537.188660,717.598999 538.023499,717.942932 
	C543.333984,720.130737 548.960938,719.486267 554.500000,719.490417 
	C582.500000,719.511292 610.500000,719.487549 638.500000,719.511292 
	C643.666748,719.515686 648.833313,719.666687 654.000000,719.750000 
"/>
<path fill="none" opacity="1.000000" stroke="#000000" stroke-linecap="round" stroke-linejoin="round" stroke-width="17.000000"
	d="
M522.500000,327.000031 
	C504.500000,340.666687 486.468872,354.292755 468.536438,368.047546 
	C466.085785,369.927277 464.162262,370.472168 461.469543,368.542511 
	C453.833466,363.070526 446.189087,363.391327 437.887604,367.787781 
	C434.233276,369.723114 433.455231,372.315063 432.482910,375.494781 
	C428.872498,387.301636 434.161621,398.309235 447.518921,400.377869 
	C458.122101,402.019989 468.614227,391.207825 467.452972,380.505096 
	C467.087769,377.139038 466.166656,373.833344 465.500000,370.500000 
"/>
<path fill="none" opacity="1.000000" stroke="#000000" stroke-linecap="round" stroke-linejoin="round" stroke-width="17.000000"
	d="
M537.000000,642.500000 
	C537.000000,667.333313 537.000000,692.166687 537.000000,717.000000 
"/>
<path fill="none" opacity="1.000000" stroke="#000000" stroke-linecap="round" stroke-linejoin="round" stroke-width="17.000000"
	d="
M445.000000,642.500000 
	C445.000000,667.333313 445.000000,692.166687 445.000000,717.000000 
"/>
<path fill="none" opacity="1.000000" stroke="#000000" stroke-linecap="round" stroke-linejoin="round" stroke-width="17.000000"
	d="
M376.500000,300.500000 
	C364.560394,302.157440 360.102020,309.104736 358.559326,317.510895 
	C357.040894,325.784698 366.050232,336.047302 374.495728,336.569336 
	C380.626892,336.948303 386.152924,335.462097 390.935852,331.913544 
	C394.237396,329.464050 393.996124,325.120361 394.415955,321.490265 
	C395.843811,309.143982 388.254883,302.260864 378.504456,300.966400 
	C377.519196,300.835602 376.211456,300.621887 376.500000,299.000000 
"/>
<path fill="none" opacity="1.000000" stroke="#000000" stroke-linecap="round" stroke-linejoin="round" stroke-width="17.000000"
	d="
M551.500000,330.500000 
	C549.166687,331.000000 546.716736,331.199921 544.520691,332.053223 
	C536.126038,335.315002 529.415405,331.356415 523.074463,326.894196 
	C519.586792,324.439880 519.618225,311.241241 522.500000,306.499969 
	C527.339478,298.537811 539.196533,294.585480 546.500000,298.499969 
	C555.365662,303.251801 559.144104,314.187836 554.361206,323.428162 
	C551.912354,328.159119 552.135376,331.143982 555.891785,335.102692 
	C566.205383,345.971771 576.010254,357.324188 585.989441,368.509430 
	C587.565002,370.275360 588.695557,372.592133 590.555298,373.922729 
	C596.935303,378.487610 597.266357,383.535767 594.197693,390.586060 
	C590.037598,400.144165 594.497742,409.096283 604.000000,412.999969 
	C613.340637,416.837311 623.689941,413.185181 627.364258,403.946014 
	C629.953308,397.435944 629.378784,390.679352 624.484131,385.013702 
	C619.157227,378.847748 612.438965,376.946075 605.015015,379.542999 
	C602.545044,380.407074 600.116211,381.269043 597.500000,381.500000 
"/>
<path fill="none" opacity="1.000000" stroke="#000000" stroke-linecap="round" stroke-linejoin="round" stroke-width="17.000000"
	d="
M392.500000,332.000000 
	C405.370148,344.355255 419.049194,355.798981 432.485352,367.516815 
	C433.099579,368.052521 433.500000,368.833344 434.000000,369.500000 
"/>
<path fill="none" opacity="1.000000" stroke="#000000" stroke-linecap="round" stroke-linejoin="round" stroke-width="18.000000"
	d="
M355.000000,441.500000 
	C350.888275,442.684082 346.917694,444.090729 343.989380,447.490845 
	C341.127319,450.814087 339.463745,454.487823 339.469238,459.000031 
	C339.520935,501.666626 339.669647,544.334534 339.358459,586.998962 
	C339.295380,595.645935 348.777740,605.298340 357.006958,604.579712 
	C361.969116,604.146423 367.030884,604.146362 371.993042,604.579651 
	C380.222229,605.298279 389.705414,595.645996 389.641602,586.998962 
	C389.329163,544.667969 389.500000,502.333344 389.500000,460.000000 
	C389.500000,449.336090 382.314270,441.878479 371.499054,441.529755 
	C366.171234,441.358002 360.833344,441.500000 355.500000,441.500000 
"/>
<path fill="none" opacity="1.000000" stroke="#000000" stroke-linecap="round" stroke-linejoin="round" stroke-width="18.000000"
	d="
M527.000000,441.500000 
	C513.789795,444.090424 510.394348,453.071991 510.431366,462.500275 
	C510.591583,503.332977 510.663818,544.167786 510.382996,584.999207 
	C510.314117,595.012390 518.382996,605.485657 530.003906,604.548340 
	C533.812439,604.241211 537.676819,604.319641 541.498047,604.534668 
	C551.925720,605.121704 561.348877,598.000916 561.416138,585.499573 
	C561.638367,544.167419 561.549500,502.833252 561.471008,461.500061 
	C561.446106,448.366852 551.420532,440.743317 540.497009,441.453979 
	C536.181946,441.734711 531.833313,441.500000 527.500000,441.500000 
"/>
<path fill="none" opacity="1.000000" stroke="#000000" stroke-linecap="round" stroke-linejoin="round" stroke-width="18.000000"
	d="
M617.000000,466.500000 
	C612.531799,467.543457 608.392273,469.175415 605.502136,473.001617 
	C603.044434,476.255402 601.444031,479.722076 601.454224,484.000122 
	C601.536133,518.333252 601.652466,552.667908 601.380859,586.999084 
	C601.321228,594.545349 608.786438,603.410034 615.496948,604.032959 
	C622.843689,604.714966 630.210571,605.099670 637.488403,603.928040 
	C645.764587,602.595581 651.220825,595.849182 651.504578,587.500183 
	C652.619873,554.671265 651.752441,521.833008 651.952332,488.999695 
	C651.992981,482.323578 651.253052,475.783447 645.535889,470.957458 
	C642.134094,468.085846 638.430847,466.485870 634.000000,466.496735 
	C628.500000,466.510223 623.000000,466.500000 617.500000,466.500000 
"/>
<path fill="none" opacity="1.000000" stroke="#000000" stroke-linecap="round" stroke-linejoin="round" stroke-width="17.000000"
	d="
M441.000000,493.000000 
	C438.893036,493.942780 436.622345,493.113861 434.508240,493.540833 
	C427.968506,494.861572 421.574310,502.510010 421.544708,509.500183 
	C421.433380,535.833008 421.419373,562.167114 421.549774,588.499756 
	C421.588226,596.268311 429.730011,604.244019 437.500977,604.465820 
	C443.496094,604.636963 449.504272,604.643799 455.498962,604.465088 
	C463.798615,604.217651 471.771637,596.283997 471.887787,586.998596 
	C472.210907,561.169312 472.423920,535.322937 471.793579,509.505035 
	C471.537659,499.023529 462.821655,493.458679 455.499969,493.467743 
	C450.833527,493.473511 446.166656,493.166687 441.500000,493.000000 
"/>
</svg>